# xmcd
#
# Track frame offsets:
#       150
#       16300
#       33837
#       65100
#       98472
#       130352
#
# Disc length: 2363 seconds
#
# Revision: 1
# Processed by: cddbd v1.5.1PL0 Copyright (c) Steve Scherf et al.
# Submitted via: WaveLab 4.01
#
DISCID=46093906
DTITLE=Cosmic Gate - The wave/Raging
DYEAR=2002
DGENRE=Trance
TTITLE0=Cosmic Gate - The Wave (7" Mix)
TTITLE1=Cosmic Gate feat. Jan Johnston - Raging (7" Mix)
TTITLE2=Cosmic Gate - The Wave (Svenson and Gielen Remix)
TTITLE3=Cosmic Gate feat. Jan Johnston - Raging (Flutlicht Vocal Mix)
TTITLE4=Cosmic Gate - The Wave (New Club Mix)
TTITLE5=Cosmic Gate feat. Jan Johnston - Raging (New Clubmix)
EXTD=
EXTT0=
EXTT1=
EXTT2=
EXTT3=
EXTT4=
EXTT5=
PLAYORDER=
